<?xml version="1.0" encoding="utf-8"?>
<!-- Generator: Adobe Illustrator 23.0.0, SVG Export Plug-In . SVG Version: 6.00 Build 0)  -->
<svg version="1.1" id="Laag_1" xmlns="http://www.w3.org/2000/svg" xmlns:xlink="http://www.w3.org/1999/xlink" x="0px" y="0px"
	 viewBox="0 0 61.1 66.7" style="enable-background:new 0 0 61.1 66.7;" xml:space="preserve">
<style type="text/css">
	.st0{fill:#FFFFFF;stroke:#C6C6C6;stroke-miterlimit:10;}
	.st1{fill:#C6C6C6;stroke:#FFFFFF;stroke-miterlimit:10;}
</style>
<title>Middel 2</title>
<g>
	<g id="Laag_1-2">
		<circle class="st0" cx="57.2" cy="50.9" r="3.4"/>
		<circle class="st1" cx="43.9" cy="50.9" r="3.4"/>
		<circle class="st1" cx="30.5" cy="50.9" r="3.4"/>
		<circle class="st1" cx="17.2" cy="50.9" r="3.4"/>
		<circle class="st1" cx="3.9" cy="50.9" r="3.4"/>
		<circle class="st0" cx="57.2" cy="39.1" r="3.4"/>
		<circle class="st0" cx="43.9" cy="39.1" r="3.4"/>
		<circle class="st1" cx="30.5" cy="39.1" r="3.4"/>
		<circle class="st1" cx="17.2" cy="39.1" r="3.4"/>
		<circle class="st1" cx="3.9" cy="39.1" r="3.4"/>
		<circle class="st1" cx="43.9" cy="62.7" r="3.4"/>
		<circle class="st1" cx="57.2" cy="62.7" r="3.4"/>
		<circle class="st1" cx="30.5" cy="62.7" r="3.4"/>
		<circle class="st1" cx="17.2" cy="62.7" r="3.4"/>
		<circle class="st1" cx="3.9" cy="62.7" r="3.4"/>
		<circle class="st0" cx="57.2" cy="27.4" r="3.4"/>
		<circle class="st0" cx="43.9" cy="27.4" r="3.4"/>
		<circle class="st0" cx="30.5" cy="27.4" r="3.4"/>
		<circle class="st1" cx="17.2" cy="27.4" r="3.4"/>
		<circle class="st1" cx="3.9" cy="27.4" r="3.4"/>
		<circle class="st0" cx="57.2" cy="15.7" r="3.4"/>
		<circle class="st0" cx="43.9" cy="15.7" r="3.4"/>
		<circle class="st0" cx="30.5" cy="15.7" r="3.4"/>
		<circle class="st0" cx="17.2" cy="15.7" r="3.4"/>
		<circle class="st1" cx="3.9" cy="15.7" r="3.4"/>
		<circle class="st0" cx="57.2" cy="3.9" r="3.4"/>
		<circle class="st0" cx="43.9" cy="3.9" r="3.4"/>
		<circle class="st0" cx="30.5" cy="3.9" r="3.4"/>
		<circle class="st0" cx="17.2" cy="3.9" r="3.4"/>
		<circle class="st0" cx="3.9" cy="3.9" r="3.4"/>
	</g>
</g>
</svg>
