<?xml version="1.0" encoding="utf-8"?>
<!-- Generator: Adobe Illustrator 23.0.0, SVG Export Plug-In . SVG Version: 6.00 Build 0)  -->
<svg version="1.1" id="Laag_1" xmlns="http://www.w3.org/2000/svg" xmlns:xlink="http://www.w3.org/1999/xlink" x="0px" y="0px"
	 viewBox="0 0 99.6 102" style="enable-background:new 0 0 99.6 102;" xml:space="preserve">
<style type="text/css">
	.st0{fill:#FFFFFF;}
	.st1{fill:#1D1D1B;}
</style>
<title>Middel 1</title>
<g id="Laag_1-2">
	<g id="XMLID_1_">
		<g>
			<polygon class="st0" points="62.3,64.5 72.3,85 27.2,85 32,75.2 			"/>
			<path class="st1" d="M49.8,13.7L90,96H9.6L49.8,13.7z M82,91L65.4,57.1L27.7,70.4L17.6,91H82z"/>
			<path class="st0" d="M82,91H17.6l10.1-20.6l37.7-13.3L82,91z M22.4,88h54.7L63.9,60.8l-34,12L22.4,88z"/>
			<path class="st0" d="M90,96L49.8,13.7L9.6,96H90z M49.8,6.8l45,92.2h-90L49.8,6.8z"/>
			<path class="st0" d="M62.3,64.5L32,75.2L27.2,85h45.1L62.3,64.5z M63.9,60.8L77.2,88H22.4l7.5-15.2L63.9,60.8z"/>
			<path class="st0" d="M94.8,99l-45-92.2L4.8,99H94.8z M55.2,11l40.2,82.3l4.2,8.6H0l4.2-8.6L44.4,11L49.8,0L55.2,11z"/>
		</g>
		<g>
		</g>
	</g>
</g>
</svg>
