<svg xmlns="http://www.w3.org/2000/svg" viewBox="0 0 559.57 83.73"><title>logo_nomatic</title><g id="Laag_2" data-name="Laag 2"><g id="Laag_1-2" data-name="Laag 1"><polygon points="59.72 5.44 59.72 70.23 0 0.69 0 79.85 5 79.85 5 14.19 64.72 83.73 64.72 5.44 59.72 5.44"/><polygon points="198.07 0.7 198.07 79.84 203.07 79.84 203.07 14.19 234.19 50.42 265.3 14.19 265.3 79.84 270.3 79.84 270.3 0.69 234.19 42.75 198.07 0.7"/><path d="M130.66,3.7C109.35,3.7,92,21.34,92,43s17.34,39.33,38.65,39.33S169.31,64.71,169.31,43,152,3.7,130.66,3.7Zm0,73.65C112.11,77.35,97,62,97,43S112.11,8.7,130.66,8.7,164.31,24.1,164.31,43,149.22,77.35,130.66,77.35Z"/><path d="M290.48,82.34h80.36L330.66,0Zm8-5,10.08-20.66,37.71-13.27,16.56,33.93Z"/><polygon points="374.98 9.94 401.88 9.94 401.88 79.84 406.88 79.84 406.88 9.94 433.77 9.94 433.77 4.94 374.98 4.94 374.98 9.94"/><rect x="460.21" y="5.7" width="5" height="74.14"/><path d="M556.19,68.53a33.27,33.27,0,0,1-22.53,8.82C515.11,77.35,500,62,500,43S515.11,8.7,533.66,8.7a33.18,33.18,0,0,1,22.52,8.82l3.39-3.68A38.19,38.19,0,0,0,533.66,3.7C512.35,3.7,495,21.34,495,43s17.34,39.33,38.65,39.33a38.19,38.19,0,0,0,25.91-10.14Z"/></g></g></svg>