<?xml version="1.0" encoding="utf-8"?>
<!-- Generator: Adobe Illustrator 23.0.0, SVG Export Plug-In . SVG Version: 6.00 Build 0)  -->
<svg version="1.1" id="Laag_1" xmlns="http://www.w3.org/2000/svg" xmlns:xlink="http://www.w3.org/1999/xlink" x="0px" y="0px"
	 viewBox="0 0 559.6 83.7" style="enable-background:new 0 0 559.6 83.7;" xml:space="preserve">
<style type="text/css">
	.st0{fill:#FFFFFF;}
</style>
<title>logo_nomatic</title>
<g>
	<g id="Laag_1-2">
		<polygon class="st0" points="59.7,5.4 59.7,70.2 0,0.7 0,79.8 5,79.8 5,14.2 64.7,83.7 64.7,5.4 		"/>
		<polygon class="st0" points="198.1,0.7 198.1,79.8 203.1,79.8 203.1,14.2 234.2,50.4 265.3,14.2 265.3,79.8 270.3,79.8 270.3,0.7 
			234.2,42.7 		"/>
		<path class="st0" d="M130.7,3.7C109.3,3.7,92,21.3,92,43s17.3,39.3,38.6,39.3s38.7-17.6,38.7-39.3S152,3.7,130.7,3.7z M130.7,77.3
			C112.1,77.3,97,62,97,43s15.1-34.3,33.7-34.3s33.6,15.4,33.6,34.3S149.2,77.3,130.7,77.3z"/>
		<path class="st0" d="M290.5,82.3h80.4L330.7,0L290.5,82.3z M298.5,77.3l10.1-20.7l37.7-13.3l16.6,33.9H298.5z"/>
		<polygon class="st0" points="375,9.9 401.9,9.9 401.9,79.8 406.9,79.8 406.9,9.9 433.8,9.9 433.8,4.9 375,4.9 		"/>
		<rect x="460.2" y="5.7" class="st0" width="5" height="74.1"/>
		<path class="st0" d="M556.2,68.5c-6.1,5.7-14.2,8.8-22.5,8.8C515.1,77.3,500,62,500,43s15.1-34.3,33.7-34.3
			c8.3,0,16.4,3.2,22.5,8.8l3.4-3.7c-7.1-6.5-16.3-10.1-25.9-10.1C512.3,3.7,495,21.3,495,43s17.3,39.3,38.7,39.3
			c9.6,0,18.9-3.6,25.9-10.1L556.2,68.5z"/>
	</g>
</g>
</svg>
